<?xml version="1.0" encoding="utf-8" ?>
<svg xmlns="http://www.w3.org/2000/svg" xmlns:xlink="http://www.w3.org/1999/xlink" width="512" height="512">
	<path d="M253.702 2.05549C255.439 1.90221 257.819 1.74063 259.475 2.32245C264.864 4.21665 263.043 25.7082 262.976 30.1426C262.894 35.6439 264.038 41.6245 258.424 44.8025L257.25 45.1764C253.99 45.8766 249.807 42.7392 249.248 39.5395C248.908 37.5933 249.051 35.4578 249.044 33.4821L249.105 13.1199C249.133 9.07357 248.229 2.86201 253.702 2.05549Z"/>
	<path d="M353.476 23.2504C358.041 23.0644 362.733 25.5925 361.348 31.0039L361.281 31.25C360.504 34.215 358.626 37.1286 357.188 39.8332L352.204 49.5607C349.898 54.1462 348.016 62.3653 342.522 63.9815C341.969 64.1396 341.505 64.3007 340.928 64.1525L340.254 63.9464C334.402 62.5117 333.624 57.4182 335.849 52.5757L347.113 30.2807C348.835 26.8845 349.723 24.6552 353.476 23.2504Z"/>
	<path d="M157.391 23.0785C164.127 23.6359 166.656 33.0982 169.201 38.1636C171.757 43.2481 174.677 48.4029 176.842 53.6561L177.125 54.3469C179.521 59.5148 175.299 63.2817 170.454 63.9026C164.312 63.507 158.956 48.0773 156.454 42.9779L152.414 34.8196C149.611 29.034 149.698 23.7132 157.391 23.0785Z"/>
	<path d="M430.758 87.7713C434.961 86.6761 438.858 93.6555 437.133 97.1255L436.284 98.6468C435.054 100.565 432.689 102.262 430.983 103.745L420.227 112.986C416.297 116.366 412.575 121.147 407.294 122.261C402.245 122.357 400.492 117.714 400.498 113.37C403.081 108.72 425.451 89.5578 430.758 87.7713Z"/>
	<path d="M430.869 329.25L431.75 329.249C434.76 329.235 437.094 331.267 439.59 332.705L450.047 338.694C454.454 341.178 459.323 343.328 463.432 346.275C468.716 350.065 466.036 355.932 461.077 358.321C456.508 358.738 453.43 356.376 449.641 354.104L440.96 349.064C437.061 346.867 432.805 344.843 429.142 342.286C423.235 338.161 424.974 332.106 430.869 329.25Z"/>
	<path d="M79.3609 329.33C86.8359 328.27 88.6872 337.922 83.3877 341.849C80.644 343.882 77.662 345.3 74.6437 346.874L65.4971 351.847C61.3156 354.168 57.4097 358.038 52.4395 358.39C48.2291 358.099 44.9534 355.362 45.6908 350.801L45.7437 350.5C46.6428 345.101 55.6569 342.001 59.8195 339.65L69.3703 334.264C72.5766 332.415 75.7828 330.359 79.3609 329.33Z"/>
	<path d="M79.6908 87.7482C84.9076 87.5435 89.1644 92.8959 92.7983 95.9902L104.564 106.223C106.51 107.947 109.283 109.706 110.484 112.061L110.911 112.901C112.818 117.027 109.526 120.84 105.855 122.358C100.765 123.123 95.8999 116.77 92.4978 113.777L84.0429 106.409C78.5298 101.702 66.7877 93.3154 79.6908 87.7482Z"/>
	<path d="M34.9386 170.579C37.8941 170.858 40.5418 171.709 43.3916 172.478L63.4199 178.022C68.6018 179.197 77.6428 181.81 73.1685 189.528C72.045 191.466 70.3557 192.322 68.2692 192.889C66.9297 193.064 65.2737 192.715 63.9688 192.379L47.1315 187.64C42.1304 186.257 27.2418 184.51 29.3276 176.477L29.4689 176C30.1701 173.562 31.6964 171.248 34.3652 170.681L34.9386 170.579Z"/>
	<path d="M476.974 170.615C480.674 169.845 484.83 176.357 483.085 179.62L482.421 180.574C479.385 184.816 453.47 191.277 447.028 192.582L444.334 192.944C437.97 192.225 435.507 183.902 441.243 180.551L441.556 180.375C443.277 179.391 445.366 179.032 447.276 178.56L468.888 172.414C471.522 171.698 474.252 170.844 476.974 170.615Z"/>
	<path d="M61.7728 255.854C68.6455 253.868 72.5208 266.867 63.4956 269.332C60.1983 270.232 56.5181 270.312 53.125 270.749L40 272.313C36.7185 272.667 33.4915 273.204 30.1873 273.273C29.2491 273.321 28.5251 273.208 27.6343 272.899L27.25 272.76C26.0042 272.318 24.6195 271.069 24.0501 269.863L23.9171 269.561C20.5409 262.084 27.0937 259.884 32.625 259.25L61.7728 255.854Z"/>
	<path d="M448.652 255.875C449.633 255.807 450.513 256.11 451.482 256.188L459.703 257.131C465.169 257.768 485.083 258.115 487.949 263.189L488.564 264.631C490.262 269.399 486.579 273.143 482.123 273.639C475.547 273.263 468.832 271.804 462.283 270.957L454.125 270.028C448.874 269.521 439.049 268.034 443.383 259.78C444.626 257.413 446.206 256.59 448.652 255.875Z"/>
	<path d="M222.853 230.347C227.118 230.561 231.029 231.34 234.607 233.8L234.982 234.063C242.14 239.019 245.903 247.4 248.167 255.532L233.875 255.627C229.596 255.638 224.908 255.996 220.676 255.362L220.25 255.295C207.312 253.505 203.159 232.181 222.853 230.347Z"/>
	<path d="M287.203 230.591C289.372 230.364 291.796 230.446 293.884 231.107L294.25 231.227C303.124 234.015 305.552 245.04 299.087 251.506C294.077 256.518 287.818 255.665 281.312 255.633L264.814 255.398C265.78 249.495 267.799 244.4 271.25 239.5L272.292 238.125C276.167 233.639 281.264 230.953 287.203 230.591Z"/>
	<path d="M202.544 470.012L309.55 470.091C309.196 482.08 306.507 490.459 298.396 499.332C291.216 507.625 280.911 510.003 270.571 510.007L240.932 510.006C237.95 510.002 234.47 510.324 231.563 509.622C212.859 505.11 202.286 488.921 202.544 470.012Z"/>
	<path d="M186.825 407.131L330.076 407.119C329.429 409.718 329.77 413.175 329.765 415.885L329.753 442.472C329.751 444.528 329.919 446.853 328.934 448.729L328.788 449C327.641 451.174 326.258 452.769 324.303 454.245C321.127 455.764 317.874 455.253 314.51 455.256L198.33 455.237C193.033 455.239 188.647 455.831 184.899 451.155L184.656 450.844C181.181 446.45 182.259 441.581 182.257 436.332C182.253 426.705 182.779 416.831 181.874 407.256L186.825 407.131Z"/>
	<path d="M249.626 68.1495C335.438 63.8508 410.678 135.341 410.798 221.719C410.847 257.531 401.736 283.238 380.098 312.648C374.104 320.796 366.575 327.388 359.792 334.812C347.838 347.894 335.639 369.548 332.752 386.75C331.718 392.906 332.736 391.818 326.397 391.812L263.066 391.664L263.002 270.004C265.509 269.751 268.205 269.95 270.732 269.963L284.977 270.016C288.174 270.016 291.492 270.098 294.633 269.42C309.487 266.212 318.784 251.218 315.768 236.5C313.032 223.144 298.088 214.974 285.275 216.381L284.875 216.429C273.177 217.691 263.442 225.29 257.807 235.408C257.351 236.61 256.818 237.92 256.602 239.192L256.532 239.644C250.571 224.956 234.689 214.068 218.589 216.691L214.101 217.608C195.459 223.071 189.662 246.21 202.459 260.263C206.494 264.694 213.153 269.469 219.38 269.723L248.995 269.852L249.088 391.8L180.585 391.653C178.604 373.254 162.994 347.25 151.345 333.869C145.321 326.949 138.508 320.951 132.792 313.709C113.836 289.688 101.582 259.137 101.048 228.382C99.8957 161.994 138.933 100.902 202.191 77.5513C216.941 72.1063 233.835 68.3972 249.626 68.1495Z"/>
</svg>
