<?xml version="1.0" encoding="utf-8" ?>
<svg xmlns="http://www.w3.org/2000/svg" xmlns:xlink="http://www.w3.org/1999/xlink" width="512" height="512">
	<path d="M422.944 39.2918C431.519 39.0071 437.069 46.6926 432.921 53.7536C431.378 56.3813 428.927 58.716 426.746 60.8159L415.611 71.3284C411.663 75.3934 408.996 80.5324 403.181 81.9761C395.396 82.3231 389.249 74.3712 393.144 67.1836C393.942 65.7125 395.347 64.3456 396.504 63.1497L413.271 46.21C416.289 43.3054 418.789 40.4329 422.944 39.2918Z"/>
	<path d="M400.949 288.303C405.395 287.67 408.863 291.445 411.606 294.326L426.826 309.635C428.995 311.803 433.101 314.891 433.702 318.093L433.751 318.375C434.748 323.387 431.878 329.385 426.607 330.511L425.283 330.791C419.813 330.772 417.543 328.214 413.816 324.485L406.242 316.884C402.136 312.75 397.557 308.636 393.89 304.124C388.253 297.188 393.28 289.809 400.949 288.303Z"/>
	<path d="M108.468 288.753C109.856 288.734 111.659 288.497 112.98 288.92L113.25 289.012C119.092 290.832 122.767 297.414 119.236 302.898L118.994 303.25C117.259 305.817 114.885 307.997 112.684 310.162L102.383 320.078C98.526 323.792 94.9704 328.573 89.9271 330.702L88.75 330.833C87.6196 330.975 86.7959 330.979 85.6707 330.725L84.4624 330.438C79.9489 329.145 76.5105 322.553 78.0904 318.114L78.585 316.816C79.7648 314.337 82.3158 312.277 84.2533 310.363L93.1574 301.628C97.8281 297.066 102.193 291.111 108.468 288.753Z"/>
	<path d="M86.0964 39.2635C94.2871 38.603 99.4873 47.086 105.053 52.6213C109.156 56.7009 117.755 63.4275 120.037 68.6616L120.182 69.0063C122.014 73.214 119.395 78.748 115.42 80.7154L115.125 80.8543C114.216 81.2895 113.327 81.4961 112.343 81.7059C110.323 81.9002 108.328 81.8485 106.495 80.8778L105.81 80.5215C102.427 78.6933 99.3711 74.7248 96.7157 71.9598L88.8541 64.0656C86.1243 61.3873 82.9659 58.8342 80.4536 55.9824C74.7124 49.4652 78.5163 41.4927 86.0964 39.2635Z"/>
	<path d="M25.7659 131.377L50.5114 131.423C53.9892 131.426 61.7303 130.361 64.6923 132.088L64.9741 132.259C74.8616 138.035 71.0608 151.363 59.8833 151.249L34.8871 151.254C31.2148 151.253 26.9552 151.717 23.3828 151.036C12.5788 148.979 12.1654 132.494 25.7659 131.377Z"/>
	<path d="M469.001 131.42L480.122 131.38C484.083 131.37 488.221 130.921 491.882 132.694C496.766 135.058 498.45 141.187 495.76 145.828L495.509 146.25C492.369 151.588 488.293 151.252 482.976 151.259L469.919 151.247L457.457 151.255C454.652 151.255 449.923 151.89 447.557 150.427L447.25 150.233C443.704 148.029 440.968 144.295 441.676 139.905L441.746 139.5C442.244 136.419 444.559 133.731 447.32 132.405L447.75 132.2C450.176 131.031 453.733 131.437 456.386 131.431L469.001 131.42Z"/>
	<path d="M450.953 218.301L484.127 218.248C485.867 218.25 487.84 218.092 489.496 218.705L491.375 219.501C500.277 223.99 498.183 236.815 488.312 238.258L455.537 238.095C448.515 238.07 439.654 236.029 441.667 226.549L441.733 226.25C442.414 222.755 445.153 219.947 448.516 218.854L450.953 218.301Z"/>
	<path d="M24.9511 218.299L59.1943 218.25C75.1422 218.277 74.4152 236.26 61.1604 238.162C54.8425 238.522 48.2307 238.117 41.8806 238.112L30.1759 238.098C28.0658 238.093 25.8626 238.212 23.7648 238.017C13.8659 237.1 11.6759 222.067 22.8651 218.754L24.9511 218.299Z"/>
	<path d="M249.097 13.6482C331.69 9.84207 405.455 76.3829 410.223 159.438C412.421 197.742 398.179 241.546 371.425 269.667C366.223 275.135 360.54 280.138 355.703 285.953C343.033 301.184 334.078 321.131 333.775 341.12L333.759 359.369C333.756 365.49 334.077 370.458 330.779 375.88L330.542 376.25C328.247 379.911 325.224 382.434 321.658 384.793C323.869 395.116 323.113 411.369 314.69 418.491C311.694 421.024 321.35 451.44 300.311 458.444C299.645 458.666 299.73 459.392 299.605 460.052C296.179 478.218 280.7 491.794 262.714 494.983C240.275 498.032 219.654 484.354 212.63 462.759C212.367 461.949 212.249 460.215 211.799 459.583C210.898 458.316 206.072 455.68 204.09 453.321L203.791 452.961C196.886 444.794 197.719 434.27 197.766 424.275C197.798 417.287 197.409 420.253 194.042 415.337L193.791 414.961C188.791 407.633 189.714 397.881 189.747 389.421C189.76 385.963 191.117 385.262 188 383.247L187.672 383.037C183.444 380.253 179.665 374.476 178.691 369.511L178.618 369.125C177.975 365.911 178.221 362.418 178.227 359.147L178.219 340.652C177.404 315.003 164.454 292.19 146.097 274.882C136.338 265.681 128.498 254.915 121.875 243.291C69.0893 150.641 126.053 36.3573 228.03 16.4198C234.958 15.0653 242.02 13.7963 249.097 13.6482ZM251.179 33.3311C195.628 36.8456 146.015 72.9994 127.942 126.397C126.672 130.148 125.325 134.237 124.618 138.125L122.934 146.376C116.469 184.228 127.79 226.197 153.823 254.809L169.501 271.128C181.093 284.364 196.124 311.272 196.844 329.732L227.282 329.565L227.285 236.987C217.843 237.049 209.183 236.887 201.993 229.837C183.303 211.51 201.256 180.283 225.57 185.485L226.5 185.694C233.684 187.31 239.854 191.563 243.868 197.751L245.236 200.182C248.041 205.77 246.995 211.305 247.235 217.234L260.437 217.29L264.233 217.545L264.343 208.472C265.875 185.545 299.866 175.103 313.851 198.459C321.63 211.452 315.965 230.771 300.875 235.499L296.665 236.579C292.875 237.379 288.502 237.003 284.623 236.984L284.714 329.662L315.352 329.551C317.524 307.035 330.299 284.134 345.334 267.808L353.78 259.507C379.529 233.548 393.208 195.51 390.682 159.04C386.57 99.6613 342.262 50.4958 284.983 36.6741C274.355 34.1095 262.176 32.3243 251.179 33.3311ZM197.75 349.15L197.753 366.362L304.375 366.524C307.445 366.513 310.867 366.077 314.185 366.25L314.266 349.239L197.75 349.15ZM246.848 236.842L246.979 329.418C249.349 330.299 261.585 329.344 265.144 329.681L265.054 245.614C265.003 242.732 265.154 239.728 264.834 236.867L246.848 236.842ZM209.75 386.032L209.739 403.245L302.578 402.748L302.641 391.5C302.655 389.885 302.93 387.82 302.637 386.248L209.75 386.032ZM283.696 422.864L217.969 422.927L217.895 438.873L229.375 438.874L294.655 438.984L294.602 422.731L283.696 422.864ZM231.789 458.507C238.711 474.82 258.679 482.472 272.667 469.24C274.909 467.028 277.022 464.863 278.446 462C279.045 460.795 279.073 459.647 279.95 458.545L231.789 458.507ZM290.147 204.509C288.986 204.798 287.958 205.035 286.932 205.678L286.704 205.814C285.418 206.629 284.624 208.555 284.355 210.008L283.794 217.449L291.803 217.233C302.244 215.163 298.718 204.136 290.147 204.509ZM222.201 204.841C221.253 204.895 220.406 204.976 219.482 205.178L219.175 205.23C212.826 206.398 211.681 216.557 219.562 217.34L227.459 217.602L227.592 209.879C227.681 206.677 225.219 205.053 222.201 204.841Z"/>
	<path d="M253.624 43.3418C255.699 43.2375 257.682 43.2736 259.75 43.499C272.133 44.8487 272.189 60.1189 262.298 62.8856L261.913 62.9883C259.127 63.7713 255.253 63.3663 252.312 63.3748C249.93 63.4625 247.095 64.072 244.789 63.5717L244.5 63.5025C237.351 61.91 233.336 53.7638 238.308 47.8685C241.743 43.795 248.724 43.6609 253.624 43.3418Z"/>
	<path d="M216.187 52.5738C225.964 51.9515 230.467 62.5113 224.631 68.911C221.331 72.53 215.351 74.1718 211.026 76.3594L202.75 81.029C176.489 97.0317 157.072 126.889 153.878 157.625L153.32 164.75C152.958 171.611 152.416 176.332 144.922 178.419C142.408 178.548 140.028 178.564 137.889 177.007L137.505 176.704C132.11 172.477 133.621 164.293 134.193 158.375C138.511 113.736 164.337 79.4118 202.904 58.2132C206.862 56.0371 211.657 53.1819 216.187 52.5738Z"/>
</svg>
